<svg height="512" viewBox="0 0 60 60" width="512" xmlns="http://www.w3.org/2000/svg"><g id="005---Question-Desk"><path id="Shape" d="m57 30h-12.128c-.516-3.169-2.57-3.761-2.658-3.784l-7.235-1.979v-3.478c.8421181-.7352682 1.4626645-1.6906741 1.792-2.759h1.208c1.6568542 0 3-1.3431458 3-3v-6c0-4.71-5.244-9-11-9s-11 4.29-11 9v11c0 1.1045695.8954305 2 2 2h1c.5522847 0 1-.4477153 1-1s-.4477153-1-1-1h-1v-2h2.2c.3343919 1.0684865.9572727 2.0239165 1.8 2.761v3.475l-7.237 1.978c-.1.025-2.132.618-2.637 3.786h-12.105c-1.65685425 0-3 1.3431458-3 3v1c.00525139 1.2667854.80564914 2.3937454 2 2.816v21.184c0 1.1045695.8954305 2 2 2h4c1.1045695 0 2-.8954305 2-2v-1h40v1c0 1.1045695.8954305 2 2 2h4c1.1045695 0 2-.8954305 2-2v-21.184c1.1943509-.4222546 1.9947486-1.5492146 2-2.816v-1c0-1.6568542-1.3431458-3-3-3zm-30.021-6.829c1.041 1.029 2.008.829 3.93.829.7755794.0253593 1.5263236-.2753011 2.07-.829v1.649c-.792 1.595-5.2 1.577-6 0zm12-8.171c0 .5522847-.4477153 1-1 1h-1v-4h2zm-9-13c5.068 0 9 3.763 9 7v1h-2.079c-.4927499-3.4433602-3.4420619-6.00066634-6.9205-6.00066634s-6.4277501 2.55730614-6.9205 6.00066634h-2.08v-1c0-3.237 3.931-7 9-7zm-7 14h-2v-4h2zm2-5c0-2.76142375 2.2385763-5 5-5s5 2.23857625 5 5v5.936c-.1530049.8901191-.6086847 1.7000987-1.29 2.293-1.697 1.489-1.778 2.771-2.78 2.771h-1.861c-1 0-1.084-1.283-2.785-2.776-.6645455-.5769837-1.116606-1.3599918-1.284-2.224zm-6.715 17.145 7.22-1.973c.59.8 1.861 1.828 4.5 1.828s3.9-1.024 4.49-1.827l7.183 1.964c.04.014.844.315 1.184 1.863h-25.711c.33-1.549 1.119-1.849 1.134-1.855zm-8.264 26.855c-1.1045695 0-2 .8954305-2 2v1h-4v-21h19.7c-2.9413405 2.0527201-4.6940267 5.4131986-4.6940267 9s1.7526862 6.9472799 4.6940267 9zm20-18c4.9705627 0 9 4.0294373 9 9s-4.0294373 9-9 9-9-4.0294373-9-9c.006061-4.9680501 4.0319499-8.993939 9-9zm26 21h-4v-1c0-1.1045695-.8954305-2-2-2h-13.695c2.9413405-2.0527201 4.6940267-5.4131986 4.6940267-9s-1.7526862-6.9472799-4.6940267-9h19.695zm2-24c0 .5522847-.4477153 1-1 1h-54c-.55228475 0-1-.4477153-1-1v-1c0-.5522847.44771525-1 1-1h54c.5522847 0 1 .4477153 1 1z"/><path id="Shape" d="m27 44c.5522847 0 1-.4477153 1-1 0-1.1045695.8954305-2 2-2s2 .8954305 2 2-.8954305 2-2 2c-.5522847 0-1 .4477153-1 1v2c0 .5522847.4477153 1 1 1s1-.4477153 1-1v-1.126c2.0125541-.5196393 3.2917506-2.4941161 2.9434376-4.5432811-.3483131-2.049165-2.208053-3.4900915-4.2792712-3.3155793-2.0712182.1745123-3.6636381 1.9063035-3.6641664 3.9848604 0 .5522847.4477153 1 1 1z"/><circle id="Oval" cx="30" cy="52" r="1"/></g></svg>